{
  "accessors": [
    {
      "bufferView": 2,
      "componentType": 5126,
      "count": 10376,
      "max": [
        0.2499999850988388,
        0.01735634356737137,
        0.35349994897842407
      ],
      "min": [
        -0.2605913281440735,
        -0.018745023757219315,
        -0.35349994897842407
      ],
      "type": "VEC3"
    },
    {
      "bufferView": 2,
      "byteOffset": 124512,
      "componentType": 5126,
      "count": 10376,
      "max": [
        1.0,
        1.0,
        1.0
      ],
      "min": [
        -1.0,
        -1.0,
        -1.0
      ],
      "type": "VEC3"
    },
    {
      "bufferView": 3,
      "componentType": 5126,
      "count": 10376,
      "max": [
        0.9972312450408936,
        1.0,
        0.9998236298561096,
        1.0
      ],
      "min": [
        -0.9999998211860657,
        -1.0,
        -0.997556209564209,
        -1.0
      ],
      "type": "VEC4"
    },
    {
      "bufferView": 1,
      "componentType": 5126,
      "count": 10376,
      "max": [
        0.9927151799201965,
        0.9899985194206238
      ],
      "min": [
        0.013032227754592896,
        0.010236627422273159
      ],
      "type": "VEC2"
    },
    {
      "bufferView": 1,
      "byteOffset": 83008,
      "componentType": 5126,
      "count": 10376,
      "max": [
        0.9927151799201965,
        0.9899985194206238
      ],
      "min": [
        0.013032227754592896,
        0.010236627422273159
      ],
      "type": "VEC2"
    },
    {
      "bufferView": 1,
      "byteOffset": 166016,
      "componentType": 5126,
      "count": 10376,
      "max": [
        0.9927151799201965,
        0.9899985194206238
      ],
      "min": [
        0.013032227754592896,
        0.010236627422273159
      ],
      "type": "VEC2"
    },
    {
      "bufferView": 1,
      "byteOffset": 249024,
      "componentType": 5126,
      "count": 10376,
      "max": [
        0.9927151799201965,
        0.9899985194206238
      ],
      "min": [
        0.013032227754592896,
        0.010236627422273159
      ],
      "type": "VEC2"
    },
    {
      "bufferView": 0,
      "componentType": 5125,
      "count": 34674,
      "type": "SCALAR"
    },
    {
      "bufferView": 2,
      "byteOffset": 249024,
      "componentType": 5126,
      "count": 10376,
      "max": [
        0.2499999850988388,
        0.01735634356737137,
        0.35349994897842407
      ],
      "min": [
        -0.2605913281440735,
        -0.018745023757219315,
        -0.35349994897842407
      ],
      "type": "VEC3"
    },
    {
      "bufferView": 2,
      "byteOffset": 373536,
      "componentType": 5126,
      "count": 10376,
      "max": [
        1.0,
        1.0,
        1.0
      ],
      "min": [
        -1.0,
        -1.0,
        -1.0
      ],
      "type": "VEC3"
    },
    {
      "bufferView": 3,
      "byteOffset": 166016,
      "componentType": 5126,
      "count": 10376,
      "max": [
        0.9972312450408936,
        1.0,
        0.9998236298561096,
        1.0
      ],
      "min": [
        -0.9999998211860657,
        -1.0,
        -0.997556209564209,
        -1.0
      ],
      "type": "VEC4"
    },
    {
      "bufferView": 1,
      "byteOffset": 332032,
      "componentType": 5126,
      "count": 10376,
      "max": [
        0.9927151799201965,
        0.9899985194206238
      ],
      "min": [
        0.013032227754592896,
        0.010236627422273159
      ],
      "type": "VEC2"
    },
    {
      "bufferView": 1,
      "byteOffset": 415040,
      "componentType": 5126,
      "count": 10376,
      "max": [
        0.9927151799201965,
        0.9899985194206238
      ],
      "min": [
        0.013032227754592896,
        0.010236627422273159
      ],
      "type": "VEC2"
    },
    {
      "bufferView": 1,
      "byteOffset": 498048,
      "componentType": 5126,
      "count": 10376,
      "max": [
        0.9927151799201965,
        0.9899985194206238
      ],
      "min": [
        0.013032227754592896,
        0.010236627422273159
      ],
      "type": "VEC2"
    },
    {
      "bufferView": 1,
      "byteOffset": 581056,
      "componentType": 5126,
      "count": 10376,
      "max": [
        0.9927151799201965,
        0.9899985194206238
      ],
      "min": [
        0.013032227754592896,
        0.010236627422273159
      ],
      "type": "VEC2"
    },
    {
      "bufferView": 0,
      "byteOffset": 138696,
      "componentType": 5125,
      "count": 34674,
      "type": "SCALAR"
    },
    {
      "bufferView": 2,
      "byteOffset": 498048,
      "componentType": 5126,
      "count": 10376,
      "max": [
        0.2499999850988388,
        0.01735634356737137,
        0.35349994897842407
      ],
      "min": [
        -0.2605913281440735,
        -0.018745023757219315,
        -0.35349994897842407
      ],
      "type": "VEC3"
    },
    {
      "bufferView": 2,
      "byteOffset": 622560,
      "componentType": 5126,
      "count": 10376,
      "max": [
        1.0,
        1.0,
        1.0
      ],
      "min": [
        -1.0,
        -1.0,
        -1.0
      ],
      "type": "VEC3"
    },
    {
      "bufferView": 3,
      "byteOffset": 332032,
      "componentType": 5126,
      "count": 10376,
      "max": [
        0.9972312450408936,
        1.0,
        0.9998236298561096,
        1.0
      ],
      "min": [
        -0.9999998211860657,
        -1.0,
        -0.997556209564209,
        -1.0
      ],
      "type": "VEC4"
    },
    {
      "bufferView": 1,
      "byteOffset": 664064,
      "componentType": 5126,
      "count": 10376,
      "max": [
        0.9927151799201965,
        0.9899985194206238
      ],
      "min": [
        0.013032227754592896,
        0.010236627422273159
      ],
      "type": "VEC2"
    },
    {
      "bufferView": 1,
      "byteOffset": 747072,
      "componentType": 5126,
      "count": 10376,
      "max": [
        0.9927151799201965,
        0.9899985194206238
      ],
      "min": [
        0.013032227754592896,
        0.010236627422273159
      ],
      "type": "VEC2"
    },
    {
      "bufferView": 1,
      "byteOffset": 830080,
      "componentType": 5126,
      "count": 10376,
      "max": [
        0.9927151799201965,
        0.9899985194206238
      ],
      "min": [
        0.013032227754592896,
        0.010236627422273159
      ],
      "type": "VEC2"
    },
    {
      "bufferView": 1,
      "byteOffset": 913088,
      "componentType": 5126,
      "count": 10376,
      "max": [
        0.9927151799201965,
        0.9899985194206238
      ],
      "min": [
        0.013032227754592896,
        0.010236627422273159
      ],
      "type": "VEC2"
    },
    {
      "bufferView": 0,
      "byteOffset": 277392,
      "componentType": 5125,
      "count": 34674,
      "type": "SCALAR"
    }
  ],
  "asset": {
    "extras": {
      "author": "Fridge (https://sketchfab.com/youssefdarwish01)",
      "license": "CC-BY-4.0 (http://creativecommons.org/licenses/by/4.0/)",
      "source": "https://sketchfab.com/3d-models/copybook-colored-702a141bdb6444e59a10794fe0ab8c27",
      "title": "Copybook (colored)"
    },
    "generator": "Sketchfab-15.25.0",
    "version": "2.0"
  },
  "bufferViews": [
    {
      "buffer": 0,
      "byteLength": 416088,
      "name": "floatBufferViews",
      "target": 34963
    },
    {
      "buffer": 0,
      "byteLength": 996096,
      "byteOffset": 416088,
      "byteStride": 8,
      "name": "floatBufferViews",
      "target": 34962
    },
    {
      "buffer": 0,
      "byteLength": 747072,
      "byteOffset": 1412184,
      "byteStride": 12,
      "name": "floatBufferViews",
      "target": 34962
    },
    {
      "buffer": 0,
      "byteLength": 498048,
      "byteOffset": 2159256,
      "byteStride": 16,
      "name": "floatBufferViews",
      "target": 34962
    }
  ],
  "buffers": [
    {
      "byteLength": 2657304,
      "uri": "scene.bin"
    }
  ],
  "images": [
    {
      "uri": "textures/BlueCopybook_MatMain_baseColor.png"
    },
    {
      "uri": "textures/BlueCopybook_MatMain_metallicRoughness.png"
    },
    {
      "uri": "textures/BlueCopybook_MatMain_normal.png"
    },
    {
      "uri": "textures/PinkCopybook_MatMain_baseColor.png"
    },
    {
      "uri": "textures/OrangeCopybook_MatMain_baseColor.png"
    }
  ],
  "materials": [
    {
      "doubleSided": true,
      "name": "BlueCopybook_MatMain",
      "normalTexture": {
        "index": 2
      },
      "pbrMetallicRoughness": {
        "baseColorTexture": {
          "index": 0
        },
        "metallicRoughnessTexture": {
          "index": 1
        }
      }
    },
    {
      "doubleSided": true,
      "name": "PinkCopybook_MatMain",
      "normalTexture": {
        "index": 2
      },
      "pbrMetallicRoughness": {
        "baseColorTexture": {
          "index": 3
        },
        "metallicRoughnessTexture": {
          "index": 1
        }
      }
    },
    {
      "doubleSided": true,
      "name": "OrangeCopybook_MatMain",
      "normalTexture": {
        "index": 2
      },
      "pbrMetallicRoughness": {
        "baseColorTexture": {
          "index": 4
        },
        "metallicRoughnessTexture": {
          "index": 1
        }
      }
    }
  ],
  "meshes": [
    {
      "name": "Object_0",
      "primitives": [
        {
          "attributes": {
            "NORMAL": 1,
            "POSITION": 0,
            "TANGENT": 2,
            "TEXCOORD_0": 3,
            "TEXCOORD_1": 4,
            "TEXCOORD_2": 5,
            "TEXCOORD_3": 6
          },
          "indices": 7,
          "material": 0,
          "mode": 4
        }
      ]
    },
    {
      "name": "Object_1",
      "primitives": [
        {
          "attributes": {
            "NORMAL": 9,
            "POSITION": 8,
            "TANGENT": 10,
            "TEXCOORD_0": 11,
            "TEXCOORD_1": 12,
            "TEXCOORD_2": 13,
            "TEXCOORD_3": 14
          },
          "indices": 15,
          "material": 1,
          "mode": 4
        }
      ]
    },
    {
      "name": "Object_2",
      "primitives": [
        {
          "attributes": {
            "NORMAL": 17,
            "POSITION": 16,
            "TANGENT": 18,
            "TEXCOORD_0": 19,
            "TEXCOORD_1": 20,
            "TEXCOORD_2": 21,
            "TEXCOORD_3": 22
          },
          "indices": 23,
          "material": 2,
          "mode": 4
        }
      ]
    }
  ],
  "nodes": [
    {
      "children": [
        1
      ],
      "matrix": [
        1.0,
        0.0,
        0.0,
        0.0,
        0.0,
        2.220446049250313e-16,
        -1.0,
        0.0,
        0.0,
        1.0,
        2.220446049250313e-16,
        0.0,
        0.0,
        0.0,
        0.0,
        1.0
      ],
      "name": "Sketchfab_model"
    },
    {
      "children": [
        2
      ],
      "name": "root"
    },
    {
      "children": [
        3,
        5,
        7
      ],
      "matrix": [
        1.0,
        0.0,
        0.0,
        0.0,
        0.0,
        2.220446049250313e-16,
        1.0,
        0.0,
        0.0,
        -1.0,
        2.220446049250313e-16,
        0.0,
        0.0,
        0.0,
        0.0,
        1.0
      ],
      "name": "GLTF_SceneRootNode"
    },
    {
      "children": [
        4
      ],
      "matrix": [
        0.9776670579092644,
        0.0,
        0.21015975799149292,
        0.0,
        0.0,
        1.0,
        0.0,
        0.0,
        -0.21015975799149292,
        0.0,
        0.9776670579092644,
        0.0,
        0.17815248668193817,
        0.033458344638347626,
        0.0,
        1.0
      ],
      "name": "BlueCopybook_ModelMain_0"
    },
    {
      "mesh": 0,
      "name": "Object_4"
    },
    {
      "children": [
        6
      ],
      "matrix": [
        1.0,
        0.0,
        0.0,
        0.0,
        0.0,
        1.0,
        0.0,
        0.0,
        0.0,
        0.0,
        1.0,
        0.0,
        -0.017710477113723755,
        0.001330159604549408,
        -0.02348143979907036,
        1.0
      ],
      "name": "PinkCopybook_ModelMain_1"
    },
    {
      "mesh": 1,
      "name": "Object_6"
    },
    {
      "children": [
        8
      ],
      "matrix": [
        0.9668702008600565,
        0.0,
        -0.255268514879595,
        0.0,
        0.0,
        1.0,
        0.0,
        0.0,
        0.255268514879595,
        0.0,
        0.9668702008600565,
        0.0,
        -0.16044200956821442,
        -0.03478850796818733,
        0.0,
        1.0
      ],
      "name": "OrangeCopybook_ModelMain_2"
    },
    {
      "mesh": 2,
      "name": "Object_8"
    }
  ],
  "samplers": [
    {
      "magFilter": 9729,
      "minFilter": 9987,
      "wrapS": 10497,
      "wrapT": 10497
    }
  ],
  "scene": 0,
  "scenes": [
    {
      "name": "Sketchfab_Scene",
      "nodes": [
        0
      ]
    }
  ],
  "textures": [
    {
      "sampler": 0,
      "source": 0
    },
    {
      "sampler": 0,
      "source": 1
    },
    {
      "sampler": 0,
      "source": 2
    },
    {
      "sampler": 0,
      "source": 3
    },
    {
      "sampler": 0,
      "source": 4
    }
  ]
}
