{
  "accessors": [
    {
      "bufferView": 2,
      "componentType": 5126,
      "count": 2638,
      "max": [
        0.988284170627594,
        3.7639355659484863,
        0.988277018070221
      ],
      "min": [
        -0.9882841110229492,
        -0.13686729967594147,
        -2.061197280883789
      ],
      "type": "VEC3"
    },
    {
      "bufferView": 2,
      "byteOffset": 31656,
      "componentType": 5126,
      "count": 2638,
      "max": [
        0.9999980926513672,
        0.9999999403953552,
        0.9999837279319763
      ],
      "min": [
        -0.999998152256012,
        -0.9999921321868896,
        -1.0
      ],
      "type": "VEC3"
    },
    {
      "bufferView": 1,
      "componentType": 5126,
      "count": 2638,
      "max": [
        0.0,
        0.0
      ],
      "min": [
        0.0,
        0.0
      ],
      "type": "VEC2"
    },
    {
      "bufferView": 0,
      "componentType": 5125,
      "count": 15528,
      "type": "SCALAR"
    },
    {
      "bufferView": 2,
      "byteOffset": 63312,
      "componentType": 5126,
      "count": 1442,
      "max": [
        0.7736316323280334,
        3.4655301570892334,
        0.7736316323280334
      ],
      "min": [
        -0.7736316323280334,
        0.05578387528657913,
        -1.7432572841644287
      ],
      "type": "VEC3"
    },
    {
      "bufferView": 2,
      "byteOffset": 80616,
      "componentType": 5126,
      "count": 1442,
      "max": [
        0.8552778959274292,
        0.999836802482605,
        0.8552772998809814
      ],
      "min": [
        -0.8552772998809814,
        -1.0,
        -0.9996171593666077
      ],
      "type": "VEC3"
    },
    {
      "bufferView": 1,
      "byteOffset": 21104,
      "componentType": 5126,
      "count": 1442,
      "max": [
        0.0,
        0.0
      ],
      "min": [
        0.0,
        0.0
      ],
      "type": "VEC2"
    },
    {
      "bufferView": 0,
      "byteOffset": 62112,
      "componentType": 5125,
      "count": 8352,
      "type": "SCALAR"
    },
    {
      "bufferView": 2,
      "byteOffset": 97920,
      "componentType": 5126,
      "count": 65532,
      "max": [
        0.9860270023345947,
        3.3570849895477295,
        0.98808753490448
      ],
      "min": [
        -0.9868303537368774,
        0.3566960394382477,
        -1.6334640979766846
      ],
      "type": "VEC3"
    },
    {
      "bufferView": 2,
      "byteOffset": 884304,
      "componentType": 5126,
      "count": 65532,
      "max": [
        0.9997719526290894,
        0.9999982118606567,
        0.9998199343681335
      ],
      "min": [
        -0.9996979832649231,
        -0.9999987483024597,
        -0.9999640583992004
      ],
      "type": "VEC3"
    },
    {
      "bufferView": 1,
      "byteOffset": 32640,
      "componentType": 5126,
      "count": 65532,
      "max": [
        0.0,
        0.0
      ],
      "min": [
        0.0,
        0.0
      ],
      "type": "VEC2"
    },
    {
      "bufferView": 0,
      "byteOffset": 95520,
      "componentType": 5125,
      "count": 390837,
      "type": "SCALAR"
    },
    {
      "bufferView": 2,
      "byteOffset": 1670688,
      "componentType": 5126,
      "count": 2853,
      "max": [
        0.9785996675491333,
        3.328385591506958,
        -0.2604004144668579
      ],
      "min": [
        -0.9843468070030212,
        1.7541437149047852,
        -1.5432699918746948
      ],
      "type": "VEC3"
    },
    {
      "bufferView": 2,
      "byteOffset": 1704924,
      "componentType": 5126,
      "count": 2853,
      "max": [
        0.9820300936698914,
        0.994841456413269,
        0.9988385438919067
      ],
      "min": [
        -0.9945513010025024,
        -0.9996460676193237,
        -0.7288824915885925
      ],
      "type": "VEC3"
    },
    {
      "bufferView": 1,
      "byteOffset": 556896,
      "componentType": 5126,
      "count": 2853,
      "max": [
        0.0,
        0.0
      ],
      "min": [
        0.0,
        0.0
      ],
      "type": "VEC2"
    },
    {
      "bufferView": 0,
      "byteOffset": 1658868,
      "componentType": 5125,
      "count": 14667,
      "type": "SCALAR"
    },
    {
      "bufferView": 2,
      "byteOffset": 1739160,
      "componentType": 5126,
      "count": 3188,
      "max": [
        0.9424410462379456,
        4.305970668792725,
        1.8231720924377441
      ],
      "min": [
        -0.9424411058425903,
        -0.11164598912000656,
        -1.560001015663147
      ],
      "type": "VEC3"
    },
    {
      "bufferView": 2,
      "byteOffset": 1777416,
      "componentType": 5126,
      "count": 3188,
      "max": [
        0.9994925260543823,
        0.99997878074646,
        0.9984170198440552
      ],
      "min": [
        -0.9994924664497375,
        -0.9999997019767761,
        -1.0
      ],
      "type": "VEC3"
    },
    {
      "bufferView": 1,
      "byteOffset": 579720,
      "componentType": 5126,
      "count": 3188,
      "max": [
        0.0,
        0.0
      ],
      "min": [
        0.0,
        0.0
      ],
      "type": "VEC2"
    },
    {
      "bufferView": 0,
      "byteOffset": 1717536,
      "componentType": 5125,
      "count": 19104,
      "type": "SCALAR"
    },
    {
      "bufferView": 2,
      "byteOffset": 1815672,
      "componentType": 5126,
      "count": 191,
      "max": [
        0.7700703740119934,
        3.457601547241211,
        0.7700703740119934
      ],
      "min": [
        -0.7700703740119934,
        0.331603467464447,
        -1.6871360540390015
      ],
      "type": "VEC3"
    },
    {
      "bufferView": 2,
      "byteOffset": 1817964,
      "componentType": 5126,
      "count": 191,
      "max": [
        7.702025754952047e-07,
        0.6326111555099487,
        2.888260723921121e-07
      ],
      "min": [
        -7.702022344346915e-07,
        -1.0,
        -0.7744722962379456
      ],
      "type": "VEC3"
    },
    {
      "bufferView": 1,
      "byteOffset": 605224,
      "componentType": 5126,
      "count": 191,
      "max": [
        0.9998999834060669,
        0.9999001026153564
      ],
      "min": [
        9.998001769417897e-05,
        9.998001769417897e-05
      ],
      "type": "VEC2"
    },
    {
      "bufferView": 0,
      "byteOffset": 1793952,
      "componentType": 5125,
      "count": 288,
      "type": "SCALAR"
    },
    {
      "bufferView": 2,
      "byteOffset": 1820256,
      "componentType": 5126,
      "count": 2017,
      "max": [
        1.52877938747406,
        82.55609893798828,
        19.62279510498047
      ],
      "min": [
        -1.5287796258926392,
        -0.8376505970954895,
        -28.683320999145508
      ],
      "type": "VEC3"
    },
    {
      "bufferView": 2,
      "byteOffset": 1844460,
      "componentType": 5126,
      "count": 2017,
      "max": [
        0.9997767210006714,
        0.9993091821670532,
        0.9999951124191284
      ],
      "min": [
        -0.9997767210006714,
        -0.9998793005943298,
        -1.0
      ],
      "type": "VEC3"
    },
    {
      "bufferView": 1,
      "byteOffset": 606752,
      "componentType": 5126,
      "count": 2017,
      "max": [
        0.6250001192092896,
        1.0000001192092896
      ],
      "min": [
        0.125,
        0.0
      ],
      "type": "VEC2"
    },
    {
      "bufferView": 0,
      "byteOffset": 1795104,
      "componentType": 5125,
      "count": 9312,
      "type": "SCALAR"
    },
    {
      "bufferView": 2,
      "byteOffset": 1868664,
      "componentType": 5126,
      "count": 55135,
      "max": [
        1.4485657215118408,
        80.64716339111328,
        18.1370906829834
      ],
      "min": [
        -1.4485007524490356,
        2.3061070442199707,
        -25.554990768432617
      ],
      "type": "VEC3"
    },
    {
      "bufferView": 2,
      "byteOffset": 2530284,
      "componentType": 5126,
      "count": 55135,
      "max": [
        0.9999937415122986,
        0.9999784827232361,
        0.9999972581863403
      ],
      "min": [
        -0.9999942779541016,
        -0.999997615814209,
        -0.9999973177909851
      ],
      "type": "VEC3"
    },
    {
      "bufferView": 1,
      "byteOffset": 622888,
      "componentType": 5126,
      "count": 55135,
      "max": [
        0.9475015997886658,
        0.999948263168335
      ],
      "min": [
        5.172316377866082e-05,
        5.172316377866082e-05
      ],
      "type": "VEC2"
    },
    {
      "bufferView": 0,
      "byteOffset": 1832352,
      "componentType": 5125,
      "count": 269952,
      "type": "SCALAR"
    }
  ],
  "asset": {
    "extras": {
      "author": "mirkuwu (https://sketchfab.com/mirkobuitre317)",
      "license": "CC-BY-4.0 (http://creativecommons.org/licenses/by/4.0/)",
      "source": "https://sketchfab.com/3d-models/moderm-headphones-71f421347c224f19b757f507be6a016a",
      "title": "Moderm Headphones"
    },
    "generator": "Sketchfab-13.46.0",
    "version": "2.0"
  },
  "bufferViews": [
    {
      "buffer": 0,
      "byteLength": 2912160,
      "name": "floatBufferViews",
      "target": 34963
    },
    {
      "buffer": 0,
      "byteLength": 1063968,
      "byteOffset": 2912160,
      "byteStride": 8,
      "name": "floatBufferViews",
      "target": 34962
    },
    {
      "buffer": 0,
      "byteLength": 3191904,
      "byteOffset": 3976128,
      "byteStride": 12,
      "name": "floatBufferViews",
      "target": 34962
    }
  ],
  "buffers": [
    {
      "byteLength": 7168032,
      "uri": "scene.bin"
    }
  ],
  "materials": [
    {
      "doubleSided": true,
      "name": "Material.001",
      "pbrMetallicRoughness": {
        "baseColorFactor": [
          0.49772,
          0.655872,
          0.8,
          1.0
        ],
        "metallicFactor": 0.0,
        "roughnessFactor": 0.8585340578269474
      }
    },
    {
      "doubleSided": true,
      "name": "speaker_material",
      "pbrMetallicRoughness": {
        "baseColorFactor": [
          0.0847707,
          0.0847707,
          0.0847707,
          1.0
        ],
        "metallicFactor": 0.0,
        "roughnessFactor": 0.9810446952299758
      }
    },
    {
      "doubleSided": true,
      "name": "Material.002",
      "pbrMetallicRoughness": {
        "baseColorFactor": [
          1.0,
          0.991071,
          0.530348,
          1.0
        ],
        "metallicFactor": 0.0,
        "roughnessFactor": 0.785403414731364
      }
    },
    {
      "doubleSided": true,
      "name": "mesh_material",
      "pbrMetallicRoughness": {
        "metallicFactor": 0.0,
        "roughnessFactor": 0.7763932022500211
      }
    }
  ],
  "meshes": [
    {
      "name": "earpiece_Material.001_0",
      "primitives": [
        {
          "attributes": {
            "NORMAL": 1,
            "POSITION": 0,
            "TEXCOORD_0": 2
          },
          "indices": 3,
          "material": 0,
          "mode": 4
        }
      ]
    },
    {
      "name": "earpiece_speaker_material_0",
      "primitives": [
        {
          "attributes": {
            "NORMAL": 5,
            "POSITION": 4,
            "TEXCOORD_0": 6
          },
          "indices": 7,
          "material": 1,
          "mode": 4
        }
      ]
    },
    {
      "name": "earpiece.001_Material.002_0",
      "primitives": [
        {
          "attributes": {
            "NORMAL": 9,
            "POSITION": 8,
            "TEXCOORD_0": 10
          },
          "indices": 11,
          "material": 2,
          "mode": 4
        }
      ]
    },
    {
      "name": "earpiece.001_Material.002_0",
      "primitives": [
        {
          "attributes": {
            "NORMAL": 13,
            "POSITION": 12,
            "TEXCOORD_0": 14
          },
          "indices": 15,
          "material": 2,
          "mode": 4
        }
      ]
    },
    {
      "name": "joys_Material.001_0",
      "primitives": [
        {
          "attributes": {
            "NORMAL": 17,
            "POSITION": 16,
            "TEXCOORD_0": 18
          },
          "indices": 19,
          "material": 0,
          "mode": 4
        }
      ]
    },
    {
      "name": "earpiece.002_mesh_material_0",
      "primitives": [
        {
          "attributes": {
            "NORMAL": 21,
            "POSITION": 20,
            "TEXCOORD_0": 22
          },
          "indices": 23,
          "material": 3,
          "mode": 4
        }
      ]
    },
    {
      "name": "Cube_Material.001_0",
      "primitives": [
        {
          "attributes": {
            "NORMAL": 25,
            "POSITION": 24,
            "TEXCOORD_0": 26
          },
          "indices": 27,
          "material": 0,
          "mode": 4
        }
      ]
    },
    {
      "name": "Cube.001_Material.002_0",
      "primitives": [
        {
          "attributes": {
            "NORMAL": 29,
            "POSITION": 28,
            "TEXCOORD_0": 30
          },
          "indices": 31,
          "material": 2,
          "mode": 4
        }
      ]
    }
  ],
  "nodes": [
    {
      "children": [
        1
      ],
      "matrix": [
        1.0,
        0.0,
        0.0,
        0.0,
        0.0,
        2.220446049250313e-16,
        -1.0,
        0.0,
        0.0,
        1.0,
        2.220446049250313e-16,
        0.0,
        0.0,
        0.0,
        0.0,
        1.0
      ],
      "name": "Sketchfab_model"
    },
    {
      "children": [
        2
      ],
      "matrix": [
        0.009999999776482582,
        0.0,
        0.0,
        0.0,
        0.0,
        0.0,
        0.009999999776482582,
        0.0,
        0.0,
        -0.009999999776482582,
        0.0,
        0.0,
        0.0,
        0.0,
        0.0,
        1.0
      ],
      "name": "66b14d38bc6549579d2220f8049d4218.fbx"
    },
    {
      "children": [
        3
      ],
      "name": "RootNode"
    },
    {
      "children": [
        4,
        15,
        17
      ],
      "matrix": [
        1.2506323865141972e-05,
        -3.176473840904581e-14,
        -286.1113281249998,
        0.0,
        -286.1113281249995,
        -1.2506323865141972e-05,
        -1.2506323881024341e-05,
        0.0,
        -1.2506323881024341e-05,
        286.1113281249998,
        -5.717652913628246e-13,
        0.0,
        0.0,
        148.23983764648438,
        0.0,
        1.0
      ],
      "name": "Empty.002"
    },
    {
      "children": [
        5,
        11,
        13
      ],
      "matrix": [
        0.22562338411808014,
        8.881783187840905e-16,
        1.9998489344574907e-16,
        0.0,
        -8.88178318827022e-16,
        0.2038497916421481,
        0.09670146797410861,
        0.0,
        1.999848932550802e-16,
        -0.09670146797410861,
        0.2038497916421481,
        0.0,
        -3.308722844642563e-24,
        -0.49310922622680664,
        -0.5181195139884949,
        1.0
      ],
      "name": "Empty.001"
    },
    {
      "children": [
        6,
        7,
        8
      ],
      "matrix": [
        1.5491050481796265,
        3.1989351614913624e-15,
        1.424015412747802e-16,
        0.0,
        -3.19893516697052e-15,
        1.5491050481796254,
        5.960464718194427e-08,
        0.0,
        -1.424014181899048e-16,
        -5.960464718194427e-08,
        1.5491050481796254,
        0.0,
        2.0588275889362774e-14,
        -0.4949228763580322,
        1.1102230246251565e-16,
        1.0
      ],
      "name": "earpiece"
    },
    {
      "mesh": 0,
      "name": "earpiece_Material.001_0"
    },
    {
      "mesh": 1,
      "name": "earpiece_speaker_material_0"
    },
    {
      "children": [
        9,
        10
      ],
      "matrix": [
        1.0894502401351929,
        -3.967434800531378e-15,
        9.021106128311881e-16,
        0.0,
        3.967434800531378e-15,
        1.0894502401351929,
        -2.8912094827667434e-17,
        0.0,
        -9.021106128311881e-16,
        2.891209482767072e-17,
        1.0894502401351929,
        0.0,
        -8.916974180794932e-15,
        -0.059926390647888184,
        0.0,
        1.0
      ],
      "name": "earpiece.001"
    },
    {
      "mesh": 2,
      "name": "earpiece.001_Material.002_0"
    },
    {
      "mesh": 3,
      "name": "earpiece.001_Material.002_0"
    },
    {
      "children": [
        12
      ],
      "matrix": [
        1.5491050481796265,
        3.1989351614913624e-15,
        1.424015412747802e-16,
        0.0,
        -3.19893516697052e-15,
        1.5491050481796254,
        5.960464718194427e-08,
        0.0,
        -1.424014181899048e-16,
        -5.960464718194427e-08,
        1.5491050481796254,
        0.0,
        2.0588275889362774e-14,
        -0.4949228763580322,
        1.1102230246251565e-16,
        1.0
      ],
      "name": "joys"
    },
    {
      "mesh": 4,
      "name": "joys_Material.001_0"
    },
    {
      "children": [
        14
      ],
      "matrix": [
        1.5491050481796265,
        3.1989351614913624e-15,
        1.424015412747802e-16,
        0.0,
        -3.19893516697052e-15,
        1.5491050481796254,
        5.960464718194427e-08,
        0.0,
        -1.424014181899048e-16,
        -5.960464718194427e-08,
        1.5491050481796254,
        0.0,
        2.0588275889362774e-14,
        -0.4949228763580322,
        1.1102230246251565e-16,
        1.0
      ],
      "name": "earpiece.002"
    },
    {
      "mesh": 5,
      "name": "earpiece.002_mesh_material_0"
    },
    {
      "children": [
        16
      ],
      "matrix": [
        0.07136106491088867,
        2.2941539340139993e-16,
        7.191634523238285e-18,
        0.0,
        -5.3637119536911336e-17,
        0.0164437854143062,
        0.00766786311195012,
        0.0,
        3.015339867147572e-17,
        -0.010055374762149289,
        0.021563820641440884,
        0.0,
        3.552713678800501e-15,
        -0.7765628099441528,
        0.07845950126647949,
        1.0
      ],
      "name": "Cube"
    },
    {
      "mesh": 6,
      "name": "Cube_Material.001_0"
    },
    {
      "children": [
        18
      ],
      "matrix": [
        0.07136106491088867,
        2.2018783384480442e-16,
        4.881445556841006e-17,
        0.0,
        -5.598324102106852e-17,
        0.01644378418321658,
        0.007667861344636358,
        0.0,
        1.627560660774645e-17,
        -0.010055372689657642,
        0.021563819552658042,
        0.0,
        3.552713678800501e-15,
        -0.7765628099441528,
        0.07845944166183472,
        1.0
      ],
      "name": "Cube.001"
    },
    {
      "mesh": 7,
      "name": "Cube.001_Material.002_0"
    }
  ],
  "scene": 0,
  "scenes": [
    {
      "name": "Sketchfab_Scene",
      "nodes": [
        0
      ]
    }
  ]
}
